<?xml version="1.0" encoding="utf-8"?>
<!-- Generator: Adobe Illustrator 17.1.0, SVG Export Plug-In . SVG Version: 6.00 Build 0)  -->
<!DOCTYPE svg PUBLIC "-//W3C//DTD SVG 1.1//EN" "http://www.w3.org/Graphics/SVG/1.1/DTD/svg11.dtd">
<svg version="1.1" id="Calque_1" xmlns="http://www.w3.org/2000/svg" xmlns:xlink="http://www.w3.org/1999/xlink" x="0px" y="0px"
	 viewBox="0 0 300 300" enable-background="new 0 0 300 300" xml:space="preserve">
<path fill="#AFCDE7" d="M150,0C67.2,0,0,67.2,0,150s67.2,150,150,150s150-67.1,150-150C300,67.2,232.8,0,150,0z M226,219.2
	c-0.1,0-0.2,0-0.4,0H71.5c-1.9,0-3.7-0.8-5-2.3c-7.1-8.5-8.9-18.8-4.8-27.6c3.9-8.2,12.4-13.5,21.7-13.5c0.7,0,1.3,0,2,0.1
	c-12.6-29.8-13.7-53.4-3.4-70.2c5.8-9.4,14.9-16.3,27.1-20.5c11-3.8,21.7-4.4,27.1-4.4c6.4,0,12.2,1.1,17.1,3.3
	c5,2.2,9.3,5.5,12.8,9.8c10.2,12.6,11.2,31.6,10.3,44.9c5.1-3.1,9.9-5.5,14.4-7.1s8.8-2.4,12.7-2.4c6.4,0,11.8,2,16.2,6
	c8.6,7.8,13.4,18.7,12.8,29.3c-0.3,5.3-2,12.3-7.6,19.5c9.8,4,15.3,12.2,15.3,20.2C240.4,214.6,231.8,218.9,226,219.2z"/>
</svg>
