<?xml version="1.0" encoding="utf-8"?>
<!-- Generator: Adobe Illustrator 17.1.0, SVG Export Plug-In . SVG Version: 6.00 Build 0)  -->
<!DOCTYPE svg PUBLIC "-//W3C//DTD SVG 1.1//EN" "http://www.w3.org/Graphics/SVG/1.1/DTD/svg11.dtd">
<svg version="1.1" id="Calque_1" xmlns="http://www.w3.org/2000/svg" xmlns:xlink="http://www.w3.org/1999/xlink" x="0px" y="0px"
	 viewBox="0 0 300 300" enable-background="new 0 0 300 300" xml:space="preserve">
<path fill="#9B8766" d="M150,0C67.2,0,0,67.2,0,150s67.1,150,150,150s150-67.1,150-150C300,67.2,232.8,0,150,0z M218.8,126.7
	c-0.3,1.3-1,2.5-1.9,3.6s-2.1,1.8-3.4,2.4c-7,3.4-12.9,7.4-17.7,11.8c-4.8,4.4-8.7,9.5-11.7,15.1c-3,5.7-5.2,12-6.5,19.1
	s-2,15-2,23.8c0,2.5-0.8,4.7-2.5,6.3c-1.7,1.7-3.7,2.5-6,2.5c-2.4,0-4.5-0.9-6.3-2.7l-28.1-28.1L88.9,218c-4.5,3.8-10.6-2.3-6.7-6.7
	l37.5-43.9l-27.9-28.1c-2.7-2.5-3.3-5.7-2-9.3c1.5-3.5,4.2-5.3,8-5.3c8.7,0,16.5-0.7,23.7-2c7.1-1.3,13.6-3.5,19.3-6.5
	c5.7-3,10.8-6.9,15.3-11.7c4.5-4.8,8.4-10.7,11.7-17.7c0.5-1.3,1.4-2.5,2.4-3.4s2.2-1.6,3.6-1.9c1.3-0.3,2.7-0.4,4.2-0.1
	c1.4,0.3,2.8,1,4.1,2.2l34.6,34.7c1.2,1.3,2,2.7,2.3,4.2C219.2,123.9,219.2,125.3,218.8,126.7z"/>
</svg>
