<?xml version="1.0" encoding="utf-8"?>
<!-- Generator: Adobe Illustrator 17.1.0, SVG Export Plug-In . SVG Version: 6.00 Build 0)  -->
<!DOCTYPE svg PUBLIC "-//W3C//DTD SVG 1.1//EN" "http://www.w3.org/Graphics/SVG/1.1/DTD/svg11.dtd">
<svg version="1.1" id="Calque_1" xmlns="http://www.w3.org/2000/svg" xmlns:xlink="http://www.w3.org/1999/xlink" x="0px" y="0px"
	 viewBox="0 0 300 300" enable-background="new 0 0 300 300" xml:space="preserve">
<g>
	<path fill="#66829B" d="M110.1,152.3c5.5,0,10.4-2.1,14.2-5.6c-0.8-2.5-1.2-5.1-1.2-7.9c0-6.2,2.1-11.9,5.7-16.4
		c-3.4-6.9-10.5-11.6-18.6-11.6c-11.4,0-20.7,9.3-20.7,20.7C89.3,143,98.6,152.3,110.1,152.3z"/>
	<path fill="#66829B" d="M131.1,147.9c3.4,6.9,10.4,11.6,18.6,11.6c8.3,0,15.5-4.9,18.8-12c1.2-2.7,1.9-5.6,1.9-8.7v-0.1
		c0-2.5-0.5-4.8-1.3-7c-1.1-2.9-2.8-5.5-4.9-7.6c-3.8-3.7-8.9-6-14.5-6c-5.5,0-10.4,2.1-14.2,5.6c-2,1.9-3.7,4.2-4.8,6.8
		s-1.8,5.4-1.8,8.4c0,0.4,0,0.7,0,1.1C129.2,142.8,129.9,145.5,131.1,147.9z"/>
	<path fill="#66829B" d="M175.4,146.3c3.7,3.7,8.9,6,14.5,6c11.4,0,20.7-9.3,20.7-20.7s-9.3-20.7-20.7-20.7c-8.3,0-15.5,4.9-18.8,12
		c3.4,4.5,5.3,10,5.3,16C176.4,141.4,176.1,143.9,175.4,146.3z"/>
	<path fill="#66829B" d="M150,0C67.2,0,0,67.2,0,150s67.2,150,150,150s150-67.1,150-150C300,67.2,232.8,0,150,0z M110.1,104.8
		c9.8,0,18.4,5.3,23,13.2c4.6-3.7,10.4-5.9,16.7-5.9c6.5,0,12.4,2.3,17,6.2c4.6-8,13.3-13.5,23.2-13.5c14.7,0,26.7,12,26.7,26.7
		s-12,26.7-26.7,26.7c-6.5,0-12.4-2.3-17-6.1c-4.6,8-13.3,13.4-23.2,13.4c-9.8,0-18.4-5.3-23-13.2c-4.6,3.7-10.4,5.9-16.7,5.9
		c-14.7,0-26.7-12-26.7-26.7C83.3,116.8,95.3,104.8,110.1,104.8z M232.8,188.9c-0.9,3.9-3.8,6.8-7.6,7.9
		c-11.4,3.1-23.3,4.7-35.3,4.7h-0.3c-1.3,1.2-2.8,2.1-4.6,2.6c-11.4,3.1-23.3,4.7-35.3,4.7c-11.9,0-23.8-1.6-35.2-4.7
		c-1.8-0.5-3.4-1.4-4.7-2.6c-11.9,0-23.7-1.6-35-4.7c-3.8-1.1-6.7-4-7.6-7.9c-0.9-3.9,0.2-7.8,3.2-10.5c10.9-10,25-15.4,39.7-15.4
		c10.6,0,20.9,2.8,29.8,8.1c3.2-0.5,6.5-0.8,9.8-0.8c3.5,0,6.9,0.3,10.3,0.9c9-5.3,19.3-8.2,30-8.2c14.8,0,28.9,5.5,39.7,15.4
		C232.6,181.1,233.8,185,232.8,188.9z"/>
	<path fill="#66829B" d="M110.1,169c-13.2,0-25.9,4.9-35.7,13.9c-1.3,1.2-1.8,2.9-1.4,4.7c0.4,1.7,1.7,3,3.4,3.5
		c9.9,2.7,20,4.1,30.3,4.4c-0.6-3.6,0.6-7.2,3.3-9.7c6.1-5.6,13.3-9.8,21-12.4C124.5,170.5,117.4,169,110.1,169z"/>
	<path fill="#66829B" d="M161.1,177.5c-2.8-0.6-5.6-1-8.5-1.1c-1-0.1-1.9-0.1-2.9-0.1c-0.8,0-1.6,0-2.4,0.1
		c-1.5,0.1-2.9,0.2-4.4,0.4c-1.4,0.2-2.8,0.4-4.2,0.7c-9.1,1.9-17.7,6.3-24.6,12.7c-1.3,1.2-1.8,2.9-1.4,4.7
		c0.1,0.2,0.1,0.4,0.2,0.6c0.5,1.4,1.7,2.4,3.2,2.9c0,0,0,0,0.1,0c3.2,0.8,6.4,1.6,9.6,2.2c7.9,1.5,15.9,2.2,24,2.2
		c8.2,0,16.3-0.8,24.2-2.3c3.2-0.6,6.4-1.3,9.5-2.2c1.5-0.4,2.7-1.5,3.2-2.9c0.1-0.2,0.2-0.4,0.2-0.6c0.4-1.7-0.1-3.5-1.4-4.7
		C178.5,183.8,170.1,179.5,161.1,177.5z"/>
	<path fill="#66829B" d="M189.9,169c-7.4,0-14.6,1.5-21.2,4.5c7.6,2.6,14.7,6.7,20.7,12.3c2.7,2.5,3.9,6.1,3.3,9.7
		c10.5-0.2,20.8-1.7,30.8-4.4c1.7-0.5,3-1.8,3.4-3.5s-0.1-3.5-1.4-4.7C215.9,173.9,203.2,169,189.9,169z"/>
</g>
</svg>
