<?xml version="1.0" encoding="utf-8"?>
<!-- Generator: Adobe Illustrator 17.1.0, SVG Export Plug-In . SVG Version: 6.00 Build 0)  -->
<!DOCTYPE svg PUBLIC "-//W3C//DTD SVG 1.1//EN" "http://www.w3.org/Graphics/SVG/1.1/DTD/svg11.dtd">
<svg version="1.1" id="Calque_1" xmlns="http://www.w3.org/2000/svg" xmlns:xlink="http://www.w3.org/1999/xlink" x="0px" y="0px"
	 viewBox="0 0 940 300" enable-background="new 0 0 940 300" xml:space="preserve">
<path fill="#AFCDE7" d="M150,0C67.2,0,0,67.2,0,150c0,82.8,67.2,150,150,150c82.8,0,150-67.1,150-150C300,67.2,232.8,0,150,0z
	 M226,219.2c-0.1,0-0.2,0-0.4,0H71.5c-1.9,0-3.7-0.8-5-2.3c-7.1-8.5-8.9-18.8-4.8-27.6c3.9-8.2,12.4-13.5,21.7-13.5
	c0.7,0,1.3,0,2,0.1c-12.6-29.8-13.7-53.4-3.4-70.2c5.8-9.4,14.9-16.3,27.1-20.5c11-3.8,21.7-4.4,27.1-4.4c6.4,0,12.2,1.1,17.1,3.3
	c5,2.2,9.3,5.5,12.8,9.8c10.2,12.6,11.2,31.6,10.3,44.9c5.1-3.1,9.9-5.5,14.4-7.1c4.5-1.6,8.8-2.4,12.7-2.4c6.4,0,11.8,2,16.2,6
	c8.6,7.8,13.4,18.7,12.8,29.3c-0.3,5.3-2,12.3-7.6,19.5c9.8,4,15.3,12.2,15.3,20.2C240.4,214.6,231.8,218.9,226,219.2z"/>
<path fill="#9B8766" d="M470,0c-82.8,0-150,67.2-150,150c0,82.8,67.1,150,150,150s150-67.1,150-150C620,67.2,552.8,0,470,0z
	 M538.8,126.7c-0.3,1.3-1,2.5-1.9,3.6c-0.9,1.1-2.1,1.8-3.4,2.4c-7,3.4-12.9,7.4-17.7,11.8c-4.8,4.4-8.7,9.5-11.7,15.1
	c-3,5.7-5.2,12-6.5,19.1c-1.3,7.1-2,15-2,23.8c0,2.5-0.8,4.7-2.5,6.3c-1.7,1.7-3.7,2.5-6,2.5c-2.4,0-4.5-0.9-6.3-2.7l-28.1-28.1
	L408.9,218c-4.5,3.8-10.6-2.3-6.7-6.7l37.5-43.9l-27.9-28.1c-2.7-2.5-3.3-5.7-2-9.3c1.5-3.5,4.2-5.3,8-5.3c8.7,0,16.5-0.7,23.7-2
	c7.1-1.3,13.6-3.5,19.3-6.5c5.7-3,10.8-6.9,15.3-11.7c4.5-4.8,8.4-10.7,11.7-17.7c0.5-1.3,1.4-2.5,2.4-3.4c1-0.9,2.2-1.6,3.6-1.9
	c1.3-0.3,2.7-0.4,4.2-0.1c1.4,0.3,2.8,1,4.1,2.2l34.6,34.7c1.2,1.3,2,2.7,2.3,4.2C539.2,123.9,539.2,125.3,538.8,126.7z"/>
<g>
	<path fill="#66829B" d="M750.1,152.3c5.5,0,10.4-2.1,14.2-5.6c-0.8-2.5-1.2-5.1-1.2-7.9c0-6.2,2.1-11.9,5.7-16.4
		c-3.4-6.9-10.5-11.6-18.6-11.6c-11.4,0-20.7,9.3-20.7,20.7C729.3,143,738.6,152.3,750.1,152.3z"/>
	<path fill="#66829B" d="M771.1,147.9c3.4,6.9,10.4,11.6,18.6,11.6c8.3,0,15.5-4.9,18.8-12c1.2-2.7,1.9-5.6,1.9-8.7v-0.1
		c0-2.5-0.5-4.8-1.3-7c-1.1-2.9-2.8-5.5-4.9-7.6c-3.8-3.7-8.9-6-14.5-6c-5.5,0-10.4,2.1-14.2,5.6c-2,1.9-3.7,4.2-4.8,6.8
		c-1.1,2.6-1.8,5.4-1.8,8.4c0,0.4,0,0.7,0,1.1C769.2,142.8,769.9,145.5,771.1,147.9z"/>
	<path fill="#66829B" d="M815.4,146.3c3.7,3.7,8.9,6,14.5,6c11.4,0,20.7-9.3,20.7-20.7c0-11.4-9.3-20.7-20.7-20.7
		c-8.3,0-15.5,4.9-18.8,12c3.4,4.5,5.3,10,5.3,16C816.4,141.4,816.1,143.9,815.4,146.3z"/>
	<path fill="#66829B" d="M790,0c-82.8,0-150,67.2-150,150c0,82.8,67.2,150,150,150c82.8,0,150-67.1,150-150C940,67.2,872.8,0,790,0z
		 M750.1,104.8c9.8,0,18.4,5.3,23,13.2c4.6-3.7,10.4-5.9,16.7-5.9c6.5,0,12.4,2.3,17,6.2c4.6-8,13.3-13.5,23.2-13.5
		c14.7,0,26.7,12,26.7,26.7c0,14.7-12,26.7-26.7,26.7c-6.5,0-12.4-2.3-17-6.1c-4.6,8-13.3,13.4-23.2,13.4c-9.8,0-18.4-5.3-23-13.2
		c-4.6,3.7-10.4,5.9-16.7,5.9c-14.7,0-26.7-12-26.7-26.7C723.3,116.8,735.3,104.8,750.1,104.8z M872.8,188.9
		c-0.9,3.9-3.8,6.8-7.6,7.9c-11.4,3.1-23.3,4.7-35.3,4.7h-0.3c-1.3,1.2-2.8,2.1-4.6,2.6c-11.4,3.1-23.3,4.7-35.3,4.7
		c-11.9,0-23.8-1.6-35.2-4.7c-1.8-0.5-3.4-1.4-4.7-2.6c-11.9,0-23.7-1.6-35-4.7c-3.8-1.1-6.7-4-7.6-7.9c-0.9-3.9,0.2-7.8,3.2-10.5
		c10.9-10,25-15.4,39.7-15.4c10.6,0,20.9,2.8,29.8,8.1c3.2-0.5,6.5-0.8,9.8-0.8c3.5,0,6.9,0.3,10.3,0.9c9-5.3,19.3-8.2,30-8.2
		c14.8,0,28.9,5.5,39.7,15.4C872.6,181.1,873.8,185,872.8,188.9z"/>
	<path fill="#66829B" d="M750.1,169c-13.2,0-25.9,4.9-35.7,13.9c-1.3,1.2-1.8,2.9-1.4,4.7c0.4,1.7,1.7,3,3.4,3.5
		c9.9,2.7,20,4.1,30.3,4.4c-0.6-3.6,0.6-7.2,3.3-9.7c6.1-5.6,13.3-9.8,21-12.4C764.5,170.5,757.4,169,750.1,169z"/>
	<path fill="#66829B" d="M801.1,177.5c-2.8-0.6-5.6-1-8.5-1.1c-1-0.1-1.9-0.1-2.9-0.1c-0.8,0-1.6,0-2.4,0.1
		c-1.5,0.1-2.9,0.2-4.4,0.4c-1.4,0.2-2.8,0.4-4.2,0.7c-9.1,1.9-17.7,6.3-24.6,12.7c-1.3,1.2-1.8,2.9-1.4,4.7
		c0.1,0.2,0.1,0.4,0.2,0.6c0.5,1.4,1.7,2.4,3.2,2.9c0,0,0,0,0.1,0c3.2,0.8,6.4,1.6,9.6,2.2c7.9,1.5,15.9,2.2,24,2.2
		c8.2,0,16.3-0.8,24.2-2.3c3.2-0.6,6.4-1.3,9.5-2.2c1.5-0.4,2.7-1.5,3.2-2.9c0.1-0.2,0.2-0.4,0.2-0.6c0.4-1.7-0.1-3.5-1.4-4.7
		C818.5,183.8,810.1,179.5,801.1,177.5z"/>
	<path fill="#66829B" d="M829.9,169c-7.4,0-14.6,1.5-21.2,4.5c7.6,2.6,14.7,6.7,20.7,12.3c2.7,2.5,3.9,6.1,3.3,9.7
		c10.5-0.2,20.8-1.7,30.8-4.4c1.7-0.5,3-1.8,3.4-3.5c0.4-1.7-0.1-3.5-1.4-4.7C855.9,173.9,843.2,169,829.9,169z"/>
</g>
</svg>
