<?xml version="1.0" encoding="utf-8"?>
<!-- Generator: Adobe Illustrator 17.1.0, SVG Export Plug-In . SVG Version: 6.00 Build 0)  -->
<!DOCTYPE svg PUBLIC "-//W3C//DTD SVG 1.1//EN" "http://www.w3.org/Graphics/SVG/1.1/DTD/svg11.dtd">
<svg version="1.1" id="Calque_1" xmlns="http://www.w3.org/2000/svg" xmlns:xlink="http://www.w3.org/1999/xlink" x="0px" y="0px"
	 viewBox="0 0 170 49" enable-background="new 0 0 170 49" xml:space="preserve">
<g>
	<path fill="#F6F6F7" d="M114.2,16.4c1,0,1.8-0.3,2.4-1c0.6-0.7,1-1.5,1-2.4c0-0.9-0.3-1.7-1-2.3c-0.6-0.6-1.5-1-2.4-1
		c-0.9,0-1.7,0.3-2.3,1c-0.6,0.6-1,1.4-1,2.3c0,0.9,0.3,1.7,1,2.4C112.5,16.1,113.3,16.4,114.2,16.4z"/>
	<path fill="#F6F6F7" d="M169.7,34.9c-0.4-0.2-1,0.2-1.7,1.2c-1.2,1.7-2.5,3.2-3.7,4.5c-1.3,1.3-2.9,2.1-4.9,2.5
		c-1.7,0.3-3.3,0.1-4.8-0.7c-1.5-0.8-2.5-2-3.2-3.8c5-2.9,8.7-5.6,11-8.3c2.3-2.7,3.6-5,3.8-6.9c0.2-1.9-0.3-3.4-1.7-4.3
		c-1.4-0.9-3.3-1.1-5.7-0.5c-1.6,0.4-3.1,1.2-4.6,2.3c-1.5,1.1-2.8,2.5-4,4c-1.2,1.6-2.3,3.3-3.1,5.1c-0.9,1.9-1.5,3.7-1.8,5.6
		c0,0.2-0.1,0.3-0.1,0.5c-1.2,2.1-2.5,3.8-4,5.3c-1.5,1.5-2.8,2.2-4,2.2c-0.6,0-0.9-0.2-1.1-0.5c-0.2-0.3-0.3-0.7-0.2-1.2
		c0-0.5,0.2-1.1,0.4-1.8c0.2-0.7,0.4-1.5,0.7-2.2c0.1-0.6,0.5-1.7,1.1-3.5c0.6-1.8,1.3-3.9,2.1-6.3c0.8-2.4,1.7-5,2.6-7.7
		c0.9-2.7,1.8-5.3,2.6-7.7c0.8-2.4,1.5-4.4,2.1-6.2c0.6-1.7,1-2.8,1.2-3.2c0.2-0.6,0.2-1.1-0.3-1.4c-0.4-0.3-1-0.5-1.7-0.5
		c-0.7,0-1.4,0.2-2.1,0.5c-0.7,0.3-1.3,0.8-1.6,1.5c-0.2,0.4-0.4,1.1-0.8,2.1c-0.3,1-0.8,2.3-1.3,3.9c-0.5,1.5-1.1,3.2-1.7,5.1
		c-0.6,1.9-1.2,3.8-1.8,5.7c-0.9-1.3-2.1-1.9-3.6-1.9c-1.3,0-2.6,0.4-4.1,1.2c-1.4,0.8-2.9,1.9-4.3,3.3c-1.4,1.4-2.8,3-4.1,4.8
		c-1.3,1.8-2.4,3.8-3.3,5.9c-0.4,0.9-0.8,1.9-1.1,2.7c-1.2,2.1-2.6,3.9-4.1,5.3c-1.5,1.5-2.8,2.2-3.9,2.2c-0.6,0-0.9-0.2-1.1-0.5
		c-0.2-0.3-0.3-0.7-0.2-1.2c0.1-0.5,0.2-1.1,0.4-1.8c0.2-0.7,0.4-1.5,0.6-2.2c0.2-0.8,0.7-2.1,1.2-3.8c0.6-1.7,1.2-3.5,1.8-5.3
		c0.6-1.8,1.3-3.6,1.8-5.1c0.6-1.6,1-2.7,1.2-3.4c0.2-0.6,0.2-1.1-0.2-1.4c-0.4-0.3-0.9-0.5-1.6-0.5c-0.7,0-1.4,0.2-2.1,0.5
		c-0.7,0.3-1.3,0.8-1.6,1.5c-0.3,0.7-0.7,1.6-1.1,2.9c-0.4,1.3-0.9,2.7-1.5,4.3c-0.6,1.6-1.1,3.4-1.8,5.3c-0.4,1.1-0.8,2.3-1.2,3.4
		c-1.2,2-2.5,3.8-4,5.2c-1.5,1.5-2.8,2.2-4,2.2c-0.6,0-0.9-0.2-1.1-0.5c-0.2-0.3-0.3-0.7-0.2-1.2c0.1-0.5,0.2-1.1,0.4-1.8
		c0.2-0.7,0.4-1.5,0.7-2.2c0.2-0.8,0.6-2.1,1.2-3.8c0.6-1.7,1.1-3.5,1.8-5.3c0.6-1.8,1.3-3.6,1.8-5.1c0.6-1.6,1-2.7,1.3-3.4
		c0.2-0.6,0.2-1.1-0.3-1.4c-0.4-0.3-1-0.5-1.7-0.5c-0.7,0-1.4,0.2-2.1,0.5c-0.7,0.3-1.2,0.8-1.5,1.5l-0.1,0.1
		c-0.8-1.5-2-2.2-3.7-2.2c-1.3,0-2.6,0.4-4.1,1.2c-1.4,0.8-2.9,1.9-4.3,3.3c-1.4,1.4-2.8,3-4.1,4.8c-1.3,1.8-2.4,3.8-3.3,5.9
		c-0.4,0.9-0.8,1.9-1.1,2.7c-1.2,2.1-2.6,3.9-4,5.3c-1.5,1.5-2.8,2.2-4,2.2c-0.6,0-0.9-0.2-1.1-0.5c-0.2-0.3-0.3-0.7-0.2-1.2
		c0.1-0.5,0.2-1.1,0.4-1.8c0.2-0.7,0.4-1.5,0.7-2.2c0.1-0.6,0.5-1.7,1.1-3.5c0.6-1.8,1.3-3.9,2.1-6.3c0.8-2.4,1.6-5,2.5-7.7
		c0.9-2.7,1.7-5.3,2.6-7.7c0.8-2.4,1.5-4.4,2.1-6.2c0.6-1.7,1-2.8,1.1-3.2c0.2-0.6,0.2-1.1-0.2-1.4c-0.4-0.3-0.9-0.5-1.6-0.5
		c-0.7,0-1.4,0.2-2.1,0.5c-0.7,0.3-1.3,0.8-1.6,1.5c-0.2,0.4-0.6,1.4-1.1,3S70.7,9.8,70,12c-0.7,2.2-1.5,4.5-2.3,7.1
		c-0.8,2.6-1.7,5.1-2.5,7.5c-0.8,2.4-1.6,4.7-2.3,6.8c-0.4,1.1-0.7,2.1-1,2.9c-1.2,2-2.5,3.7-3.9,5.1c-1.5,1.5-2.8,2.2-4,2.2
		c-0.6,0-0.9-0.2-1.1-0.5c-0.2-0.3-0.3-0.7-0.2-1.2c0.1-0.5,0.2-1.1,0.4-1.8c0.2-0.7,0.4-1.5,0.7-2.2c0.1-0.6,0.5-1.7,1.1-3.5
		c0.6-1.8,1.3-3.9,2.1-6.3c0.8-2.4,1.6-5,2.5-7.7c0.9-2.7,1.7-5.3,2.6-7.7s1.5-4.4,2.1-6.2c0.6-1.7,1-2.8,1.1-3.2
		c0.2-0.6,0.2-1.1-0.2-1.4c-0.4-0.3-0.9-0.5-1.6-0.5c-0.7,0-1.4,0.2-2.1,0.5c-0.7,0.3-1.3,0.8-1.6,1.5c-0.2,0.4-0.6,1.4-1.1,3
		s-1.2,3.4-1.9,5.6c-0.7,2.2-1.5,4.5-2.3,7.1c-0.7,2.3-1.5,4.5-2.2,6.6c-0.1,0-0.2,0-0.3,0c-0.8,0-1.6,0-2.4-0.1
		c-0.8-0.1-1.6-0.3-2.3-0.6c-0.2-2.3-1-4.1-2.3-5.3c-1.3-1.2-3-1.6-5.1-1.2c-1.5,0.3-2.9,1-4.4,2.1c-1.4,1.1-2.8,2.4-4.1,3.9
		c-1.3,1.5-2.4,3.3-3.4,5.2c-0.9,1.8-1.6,3.6-2.1,5.5c-1.5,1.9-2.9,3.2-4.3,4c-1.8,1.1-3.7,1.9-5.6,2.2c-1.7,0.3-3.2,0.1-4.5-0.6
		c-1.3-0.7-2.3-1.9-3.1-3.4c-0.8-1.6-1.2-3.5-1.3-5.7c-0.1-2.2,0.1-4.7,0.6-7.4c0.6-2.6,1.4-5.2,2.6-7.7c1.2-2.5,2.5-4.7,4-6.7
		C16,8,17.6,6.3,19.4,5c1.7-1.3,3.5-2.1,5.2-2.4c1.3-0.1,2.3,0.1,2.9,0.6c0.6,0.5,0.9,1.2,0.9,2c0,0.8-0.2,1.7-0.6,2.8
		c-0.4,1-0.9,2-1.6,2.8c-0.6,0.9-1.3,1.6-2.1,2.2c-0.8,0.6-1.5,0.8-2.2,0.8c-0.7,0-1.1,0.4-1.2,1.1c-0.2,0.7,0,1.5,0.4,2.3
		c0.4,0.8,1.1,1.6,2.1,2.2c1,0.6,2.3,0.8,3.9,0.6c1.5-0.2,2.8-0.9,3.9-2c1.1-1.2,1.9-2.5,2.5-4.1c0.6-1.6,0.8-3.2,0.8-5
		c0-1.7-0.4-3.3-1.1-4.7c-0.7-1.4-1.9-2.4-3.4-3.2c-1.5-0.7-3.5-0.9-5.9-0.5c-2.3,0.4-4.7,1.4-7,3.1c-2.4,1.7-4.6,3.8-6.6,6.2
		c-2.1,2.5-3.9,5.3-5.5,8.4c-1.6,3.1-2.8,6.3-3.6,9.6c-0.9,3.3-1.2,6.3-1.1,9c0.2,2.7,0.7,5,1.7,6.8c1,1.8,2.3,3.2,4,3.9
		c1.7,0.8,3.7,0.9,6,0.5c1.6-0.3,3.2-0.9,5-1.9c1.7-0.9,3.4-2.1,5-3.5c1.2-1.1,2.4-2.2,3.5-3.4c0,0.7-0.1,1.3,0,1.9
		c0.1,1.7,0.4,3.1,1.1,4.3c0.6,1.2,1.5,2,2.5,2.5c1.1,0.5,2.3,0.6,3.8,0.3c1.5-0.3,2.9-1,4.4-2c1.4-1,2.8-2.3,4.1-3.9
		c1.3-1.5,2.4-3.3,3.4-5.2c1-1.9,1.8-3.9,2.2-6c0.2-0.7,0.3-1.4,0.4-2.1c0.1-0.7,0.2-1.3,0.2-2c0.9,0.2,1.9,0.4,2.9,0.5
		c0.5,0,1,0,1.5,0c-0.7,2.1-1.4,4.1-2,5.9c-0.7,2.1-1.3,3.8-1.7,5.1c-0.4,1-0.7,2.1-1.1,3.3c-0.3,1.2-0.5,2.2-0.5,3.2
		c0,1,0.2,1.8,0.6,2.4c0.4,0.6,1.3,1,2.5,1c1.2,0,2.5-0.4,3.9-1.1c1.4-0.7,2.8-1.7,4.1-2.8c0.9-0.8,1.7-1.6,2.4-2.4
		c-0.3,1.1-0.4,2.1-0.4,3c0,1,0.2,1.8,0.6,2.4c0.4,0.6,1.3,1,2.5,1c1.2,0,2.5-0.4,3.9-1.1c1.4-0.7,2.8-1.7,4.1-2.8
		c1.2-1.1,2.3-2.2,3.4-3.5c-0.1,1.1-0.1,2.2,0.1,3.1c0.2,1.4,0.7,2.5,1.5,3.3c0.7,0.8,1.7,1.2,3,1.2c1.4,0,2.9-0.5,4.5-1.4
		c1.6-0.9,3.2-2.2,4.8-3.9c-0.2,1.4-0.2,2.6,0.2,3.6c0.4,1,1.3,1.5,2.8,1.5c1.2,0,2.5-0.4,3.9-1.1c1.4-0.7,2.8-1.7,4.1-2.8
		c0.9-0.8,1.7-1.6,2.4-2.4c-0.3,1.1-0.4,2.1-0.4,3c0,1,0.2,1.8,0.7,2.4c0.5,0.6,1.3,1,2.5,1c1.2,0,2.5-0.4,3.9-1.1
		c1.4-0.7,2.8-1.7,4.1-2.8c1.2-1.1,2.3-2.3,3.4-3.6c-0.1,1.1-0.1,2.2,0.1,3.1c0.2,1.4,0.7,2.5,1.5,3.3c0.7,0.8,1.7,1.2,3,1.2
		c1.4,0,2.9-0.5,4.5-1.4c1.6-0.9,3.2-2.2,4.8-3.9c-0.3,1.4-0.3,2.6,0.1,3.6c0.4,1,1.3,1.5,2.8,1.5c1.2,0,2.5-0.4,3.9-1.1
		c1.4-0.7,2.8-1.7,4.1-2.8c1.3-1.2,2.5-2.4,3.6-3.8c0.2-0.2,0.4-0.5,0.5-0.7c0,0.4,0.1,0.7,0.2,1.1c0.3,1.6,0.9,2.9,1.7,3.9
		c0.8,1.1,1.8,1.9,3,2.4c1.2,0.6,2.5,0.8,3.8,0.8c1.8,0,3.6-0.3,5.2-1c1.6-0.7,3.1-1.6,4.5-2.7c1.4-1.1,2.6-2.3,3.7-3.7
		c1.1-1.4,1.9-2.7,2.6-4.1C170,35.8,170.1,35.1,169.7,34.9z M45,28.3c-0.1,0.7-0.2,1.3-0.4,2c-0.4,1.5-0.9,2.9-1.5,4.2
		c-0.6,1.3-1.4,2.6-2.2,3.6c-0.9,1.1-1.8,2-2.8,2.7c-1,0.7-1.9,1.1-2.8,1.3c-0.9,0.1-1.7,0-2.4-0.5c-0.7-0.4-1.3-1.1-1.7-2
		c-0.4-0.9-0.6-2-0.6-3.2c0-1.3,0.1-2.6,0.5-4.1c0.4-1.5,0.9-2.9,1.6-4.3c0.7-1.4,1.4-2.6,2.2-3.7c0.8-1.1,1.7-2,2.7-2.7
		c1-0.7,1.9-1.1,2.8-1.2h0.6c-0.5,1.1-0.3,2.2,0.5,3.3c0.8,1.1,2,1.9,3.6,2.5C45,27,45,27.6,45,28.3z M89.5,38.6L89,39.7
		c-1,1.2-2.1,2.2-3.2,2.9c-1.1,0.7-2.1,1-3,1c-1.7-0.1-2.6-1.2-2.9-3.5c-0.3-2.3,0.2-5,1.5-8.2c0.6-1.6,1.3-3.1,2.2-4.5
		c0.9-1.4,1.8-2.6,2.8-3.6c1-1,2-1.8,2.9-2.4c1-0.6,1.9-0.9,2.8-0.9c1.3,0.1,2.2,0.9,2.7,2.4c-0.7,1.8-1.5,4.2-2.4,7
		C91.5,32.8,90.5,35.6,89.5,38.6z M131,38.6l-0.5,1.1c-1,1.2-2.1,2.2-3.2,2.9c-1.1,0.7-2.1,1-3,1c-1.7-0.1-2.6-1.2-2.9-3.5
		c-0.3-2.3,0.2-5,1.5-8.2c0.6-1.6,1.4-3.1,2.2-4.5c0.9-1.4,1.8-2.6,2.8-3.6c1-1,1.9-1.8,2.9-2.4c0.9-0.6,1.9-0.9,2.7-0.9
		c1.2,0.1,2.1,0.8,2.6,2.3c-1,3.2-2,6.2-3,9C132.3,34.8,131.5,37,131,38.6z M150.7,32.1c0.4-2.1,1-4.2,2-6.2c1-2,2.3-3.4,4-4.3
		c1-0.6,2-0.5,2.8,0.3c0.9,0.7,1.2,1.9,1.1,3.4c-0.1,1.5-0.9,3.3-2.4,5.4c-1.5,2.1-4,4.1-7.6,6.1C150.4,35.4,150.4,33.8,150.7,32.1z
		"/>
</g>
</svg>
