<?xml version="1.0" encoding="utf-8"?>
<!-- Generator: Adobe Illustrator 17.1.0, SVG Export Plug-In . SVG Version: 6.00 Build 0)  -->
<!DOCTYPE svg PUBLIC "-//W3C//DTD SVG 1.1//EN" "http://www.w3.org/Graphics/SVG/1.1/DTD/svg11.dtd">
<svg version="1.1" id="Calque_1" xmlns="http://www.w3.org/2000/svg" xmlns:xlink="http://www.w3.org/1999/xlink" x="0px" y="0px"
	 viewBox="0 0 200 171.4" enable-background="new 0 0 200 171.4" xml:space="preserve">
<g>
	<g>
		<path fill="#FFFFFF" d="M19.2,171.4c-1.1,0-2.1-0.4-3-1.2c-0.9-0.8-1.5-1.8-1.8-3V167c-0.3-0.3-0.3-0.7,0-1.4c0.3-0.7,0.3-1,0.2-1
			s0-0.3,0.4-1l2.4-3c0.3-0.3,0.7-0.7,1.2-1.4c0.5-0.7,1.3-1.5,2.2-2.4l4-4.4c0.9-1.1,2.1-2.5,3.4-4.4c1.3-1.9,2.5-3.7,3.6-5.6
			c1.1-1.9,2.1-4.1,3-6.6l3-8.4c-11.7-6.8-20.9-15-27.6-24.6C3.5,93.2,0.1,82.7,0,71.4C0,65,1.2,58.8,3.5,52.7
			c2.3-6.1,5.6-11.8,9.9-17.1c4.3-5.3,9.5-10.2,15.7-14.6c6.2-4.4,13.1-8.2,20.7-11.4C65.3,3.2,82,0,100,0c9.1,0,17.8,0.8,26.3,2.5
			c8.5,1.7,16.4,4,23.9,7.1c7.5,3.1,14.3,6.8,20.5,11.2c6.2,4.4,11.5,9.3,15.9,14.8c8.9,10.9,13.4,22.9,13.4,35.8
			c0,6.4-1.2,12.6-3.5,18.7c-2.3,6.1-5.6,11.8-9.9,17.1c-4.3,5.3-9.5,10.2-15.7,14.6c-6.2,4.4-13.1,8.2-20.7,11.4
			c-15.3,6.4-32.1,9.6-50.2,9.6c-2.7,0-5.3-0.1-8-0.2c-2.7-0.1-5.4-0.3-8.2-0.6c-14.5,12.9-31.7,21.9-51.4,27
			c-3.6,1.1-7.8,1.9-12.6,2.4H19.2z M54.4,120.4l-3,10.8c-1.9,6.7-4.5,13-7.8,19c11.1-4.5,21.3-10.9,30.8-19l4.8-4.2l6.2,0.6
			c2.7,0.3,5.2,0.5,7.6,0.7s4.7,0.3,7,0.3c7.6,0,15-0.7,22.2-2c7.2-1.3,14-3.3,20.4-5.8c6.4-2.5,12.3-5.6,17.6-9.1
			c5.3-3.5,9.9-7.5,13.8-11.9c7.7-8.8,11.7-18.3,11.8-28.4C185.9,61.3,182,51.8,174,43c-8-8.8-18.4-15.8-31.3-21
			c-12.9-5.2-27.1-7.8-42.7-7.8c-7.6,0-15,0.7-22.2,2c-7.2,1.3-14,3.3-20.4,5.8c-6.4,2.5-12.3,5.6-17.6,9.1
			C34.5,34.6,29.9,38.6,26,43s-6.7,8.9-8.6,13.4c-1.9,4.5-2.9,9.1-3.1,13.6c-0.2,4.5,0.4,8.9,1.8,13.1c1.4,4.2,3.4,8.2,6.1,12.1
			c5.6,7.9,13.1,14.4,22.6,19.6L54.4,120.4z"/>
	</g>
</g>
</svg>
