<?xml version="1.0" encoding="utf-8"?>
<!-- Generator: Adobe Illustrator 17.1.0, SVG Export Plug-In . SVG Version: 6.00 Build 0)  -->
<!DOCTYPE svg PUBLIC "-//W3C//DTD SVG 1.1//EN" "http://www.w3.org/Graphics/SVG/1.1/DTD/svg11.dtd">
<svg version="1.1" id="Calque_1" xmlns="http://www.w3.org/2000/svg" xmlns:xlink="http://www.w3.org/1999/xlink" x="0px" y="0px"
	 viewBox="0 0 200 125.1" enable-background="new 0 0 200 125.1" xml:space="preserve">
<g>
	<path fill="#3D5164" d="M148.1,0c-11.9,0-22.4,6.6-27.9,16.2c-5.5-4.7-12.6-7.5-20.5-7.5c-7.6,0-14.6,2.6-20.1,7.1
		C74.1,6.4,63.8,0,52,0C34.2,0,19.7,14.4,19.9,32.1c0,17.7,14.4,32.1,32.1,32.1c7.6,0,14.6-2.6,20.1-7.1C77.6,66.6,87.9,73,99.7,73
		c11.9,0,22.4-6.5,27.9-16.1c5.5,4.6,12.6,7.3,20.5,7.3c17.7,0,32.1-14.4,32.1-32.1S165.8,0,148.1,0z M67.6,40.9
		c0,3.4,0.5,6.5,1.4,9.5c-4.6,4.2-10.5,6.7-17.1,6.7c-13.8,0-25-11.2-24.8-25c0-13.7,11.2-24.9,24.9-24.9c9.7,0,18.3,5.7,22.4,14
		C70.1,26.6,67.6,33.4,67.6,40.9z M124.5,40.9c0,3.7-0.8,7.2-2.3,10.5c-4,8.5-12.6,14.4-22.6,14.4c-9.9,0-18.3-5.7-22.4-14
		c-1.4-2.9-2.3-6.1-2.6-9.5V41c0-3.6,0.8-7,2.2-10.1c1.3-3.1,3.4-5.9,5.8-8.2C87.1,18.5,93,16,99.6,16c6.7,0,12.9,2.8,17.4,7.2
		c2.5,2.5,4.6,5.7,5.9,9.1c1,2.6,1.6,5.4,1.6,8.4V40.9z M148,57.1c-6.7,0-13-2.8-17.4-7.2c0.8-2.9,1.2-5.9,1.2-8.9
		c0-7.2-2.3-13.8-6.4-19.2c4-8.5,12.6-14.4,22.6-14.4c13.7,0,24.9,11.2,24.9,24.9C172.9,46,161.7,57.1,148,57.1z M195.9,88.5
		c-13-11.9-30-18.5-47.8-18.5c-12.9,0-25.3,3.5-36.1,9.9c-4.1-0.7-8.2-1.1-12.4-1.1c-4,0-7.9,0.4-11.8,1C77.1,73.4,64.7,70,52,70
		c-17.7,0-34.6,6.5-47.8,18.5c-3.6,3.2-4.9,7.9-3.8,12.6c1.1,4.7,4.6,8.2,9.1,9.5c13.6,3.7,27.8,5.7,42.1,5.7
		c1.6,1.4,3.5,2.5,5.7,3.1c13.7,3.7,28,5.7,42.3,5.7c14.4,0,28.8-1.9,42.5-5.7c2.2-0.6,4-1.7,5.5-3.1h0.4c14.4,0,28.8-1.9,42.5-5.7
		c4.6-1.3,8.1-4.8,9.1-9.5C200.8,96.5,199.3,91.8,195.9,88.5z M47.9,109.1c-12.4-0.4-24.5-2-36.5-5.3c-2-0.6-3.6-2.2-4.1-4.2
		C6.9,97.4,7.5,95.4,9,94C20.8,83.1,36.1,77.2,52,77.2c8.8,0,17.3,1.8,25.1,5.3c-9.3,3.1-17.9,8.2-25.3,14.9
		C48.6,100.4,47.2,104.8,47.9,109.1z M144.4,108.3c0,0.2-0.1,0.5-0.2,0.7c-0.6,1.7-2,3-3.8,3.5c-3.7,1.1-7.6,1.9-11.4,2.6
		c-9.5,1.8-19.2,2.8-29.1,2.8c-9.7,0-19.4-0.8-28.9-2.6c-3.8-0.7-7.7-1.7-11.5-2.6c-0.1,0-0.1,0-0.1,0c-1.8-0.6-3.2-1.8-3.8-3.5
		c-0.1-0.2-0.1-0.5-0.2-0.7c-0.5-2.2,0.1-4.2,1.7-5.7c8.3-7.7,18.6-13,29.6-15.3c1.7-0.4,3.4-0.6,5.1-0.8c1.8-0.2,3.5-0.4,5.3-0.5
		c1-0.1,1.9-0.1,2.9-0.1c1.2,0,2.3,0,3.5,0.1c3.5,0.1,6.9,0.6,10.2,1.3c10.8,2.4,20.9,7.6,29.4,15.2
		C144.2,104.1,144.8,106.2,144.4,108.3z M192.5,99.6c-0.5,2-2,3.6-4.1,4.2c-12,3.2-24.4,5.1-37.1,5.3c0.7-4.3-0.7-8.7-4-11.7
		c-7.2-6.7-15.8-11.7-24.9-14.8c7.9-3.6,16.6-5.4,25.5-5.4c16,0,31.3,5.9,42.8,16.7C192.4,95.4,193,97.6,192.5,99.6z"/>
</g>
</svg>
