<?xml version="1.0" encoding="utf-8"?>
<!-- Generator: Adobe Illustrator 17.1.0, SVG Export Plug-In . SVG Version: 6.00 Build 0)  -->
<!DOCTYPE svg PUBLIC "-//W3C//DTD SVG 1.1//EN" "http://www.w3.org/Graphics/SVG/1.1/DTD/svg11.dtd">
<svg version="1.1" id="Calque_1" xmlns="http://www.w3.org/2000/svg" xmlns:xlink="http://www.w3.org/1999/xlink" x="0px" y="0px"
	 viewBox="0 0 200 208.4" enable-background="new 0 0 200 208.4" xml:space="preserve">
<g>
	<g>
		<path fill="#FFFFFF" d="M184.1,70.1c9,21.2,14.2,41.2,15.6,60c1.4,18.6-1.6,29.5-9.1,32.6c-4.3,1.9-9.1,1.6-14.2-0.7
			c-5.1-2.3-10.2-5.4-15.1-9.3c-2.5-1.9-5.7-3.6-9.7-5.3c-4-1.7-8.4-3.1-13.4-4.2c-5-1.1-10.4-1.8-16.3-2.2
			c-5.9-0.4-12-0.3-18.4,0.3c-4.3,0.6-7.6,2.1-9.8,4.4c-2.2,2.3-2.6,5.2-1.4,8.6c1.7,4.3,3.4,8.6,5.2,12.8c1.8,4.2,3.6,8.3,5.5,12.3
			c0.6,1.6,2.5,3.3,5.6,5.1c1.5,0.9,3,2.1,4.3,3.5c1.3,1.4,2.1,2.8,2.4,4.2s0,2.8-0.8,4.2c-0.9,1.4-2.7,2.6-5.5,3.5
			c-3.9,1.7-7.6,3.4-11.2,5c-3.6,1.6-6.9,2.7-10,3.3c-3.1,0.5-5.9,0.2-8.5-0.9c-2.6-1.2-4.8-3.8-6.6-7.8c-2.5-5.9-4.8-11.4-7.1-16.5
			c-2.2-5.1-4.4-9.8-6.4-14.2c-0.9-2-3.6-3.3-7.9-4c-4.2-0.6-7.8-3-10.7-7.2c-2.3,0.8-4.2,1.4-5.7,2c-1.5,0.5-2.5,1-3.1,1.3
			c-2.6,0.9-5.5,1.1-8.5,0.5c-3-0.6-5.9-1.7-8.7-3.4c-2.8-1.6-5.3-3.6-7.6-6c-2.2-2.4-3.9-5-5-7.8c-1.4-2.5-2.1-5.4-2.2-8.7
			c-0.1-3.3,0.3-6.5,1-9.7c0.8-3.1,2.1-6,3.8-8.6c1.8-2.6,3.8-4.5,6.2-5.6c19.7-8.1,36.2-16.4,49.7-25c13.4-8.6,23-16.6,28.7-24.1
			c5.7-7.4,10.3-14.6,13.7-21.5c3.4-6.9,5.4-12.9,5.8-18c0.5-5.1,1.6-9.7,3.5-13.7c1.9-4,4.6-6.8,8.4-8.4
			c7.4-2.9,17.5,2.5,30.2,16.3C163.8,30.9,174.8,48.5,184.1,70.1z M177.6,139.9c1.4-0.8,2.2-3.7,2.3-8.8c0.2-2.6,0-5.9-0.3-9.9
			c-0.4-4-1.1-8.3-2.2-12.9c-1.1-4.7-2.4-9.5-4-14.7c-1.6-5.1-3.4-10.2-5.6-15.4c-2.2-5.1-4.6-10.1-7.3-14.9
			c-2.7-4.8-5.5-9.3-8.3-13.5c-2.8-4.2-5.5-8-8.3-11.4c-2.7-3.4-5.2-6.1-7.3-8.1c-4.3-4.2-7.1-6-8.4-5.3c-1.2,0.6-2,3.9-2.3,9.8
			c-0.2,2.9,0,6.6,0.3,10.8c0.4,4.3,1,8.8,2,13.7c0.9,4.9,2.2,10,3.7,15.2c1.5,5.3,3.4,10.5,5.6,15.6c2.2,5.1,4.6,10,7.3,14.7
			c2.7,4.7,5.5,9,8.5,12.9c2.9,4,5.8,7.4,8.5,10.5c2.7,3,5.2,5.5,7.3,7.3C173.7,139,176.5,140.5,177.6,139.9z"/>
	</g>
</g>
</svg>
