<?xml version="1.0" encoding="utf-8"?>
<!-- Generator: Adobe Illustrator 17.1.0, SVG Export Plug-In . SVG Version: 6.00 Build 0)  -->
<!DOCTYPE svg PUBLIC "-//W3C//DTD SVG 1.1//EN" "http://www.w3.org/Graphics/SVG/1.1/DTD/svg11.dtd">
<svg version="1.1" id="Calque_1" xmlns="http://www.w3.org/2000/svg" xmlns:xlink="http://www.w3.org/1999/xlink" x="0px" y="0px"
	 viewBox="0 0 200 200" enable-background="new 0 0 200 200" xml:space="preserve">
<g>
	<path fill="#F7F7F6" d="M193.4,162.2c4.4,4.4,6.6,9.7,6.6,16c0,3.1-0.6,5.9-1.7,8.5c-1.1,2.6-2.7,4.9-4.7,6.9c-2,2-4.3,3.6-7,4.7
		c-2.7,1.1-5.5,1.7-8.6,1.7c-6.1,0-11.4-2.2-15.8-6.6l-52-52C99.3,147.1,87.5,150,75,150c-10.4,0-20.2-2-29.3-5.9
		c-9.1-3.9-17.1-9.2-23.9-15.9c-6.8-6.7-12.1-14.6-16-23.7C1.9,95.4,0,85.6,0,75.2S1.9,55,5.8,45.9c3.9-9.1,9.2-17.1,16-23.9
		c6.8-6.8,14.8-12.2,23.9-16.1S64.6,0,75,0c10.4,0,20.2,2,29.3,5.9c9.1,3.9,17.1,9.3,23.9,16.1s12.1,14.8,16,23.9
		C148.1,55,150,64.7,150,75c0,12.5-2.9,24.3-8.6,35.2L193.4,162.2z M170,185.6c2,2,4.7,3.1,8,3.4c3.1,0.1,5.7-0.9,7.8-3.2
		c2.1-2.3,3.2-4.9,3.2-7.8c0-3.1-1.1-5.7-3.4-8l-50.4-50.4c-4.4,6-9.6,11.2-15.6,15.6L170,185.6z M132.5,50.7
		c-3.3-7.5-7.7-14.1-13.3-19.8c-5.6-5.7-12.2-10.1-19.8-13.4S83.7,12.6,75,12.6s-16.8,1.6-24.4,4.9s-14.2,7.7-19.8,13.3
		c-5.6,5.6-10,12.2-13.3,19.7C14.2,58,12.6,66.2,12.6,75s1.6,17,4.9,24.5c3.3,7.5,7.7,14.1,13.3,19.7c5.6,5.6,12.2,10,19.8,13.3
		c7.6,3.3,15.7,4.9,24.4,4.9s16.8-1.6,24.4-4.9c7.6-3.3,14.2-7.7,19.8-13.4c5.6-5.7,10-12.3,13.3-19.9c3.3-7.6,4.9-15.7,4.9-24.2
		C137.4,66.3,135.8,58.2,132.5,50.7z"/>
</g>
</svg>
