<?xml version="1.0" encoding="utf-8"?>
<!-- Generator: Adobe Illustrator 17.1.0, SVG Export Plug-In . SVG Version: 6.00 Build 0)  -->
<!DOCTYPE svg PUBLIC "-//W3C//DTD SVG 1.1//EN" "http://www.w3.org/Graphics/SVG/1.1/DTD/svg11.dtd">
<svg version="1.1" id="Calque_1" xmlns="http://www.w3.org/2000/svg" xmlns:xlink="http://www.w3.org/1999/xlink" x="0px" y="0px"
	 viewBox="0 0 200 189.5" enable-background="new 0 0 200 189.5" xml:space="preserve">
<g>
	<g>
		<path fill="#FFFFFF" d="M0,94.3c0-2.7,0.1-5.5,0.3-8.4c0.2-2.9,0.6-6,1.2-9.3c7.3,0.6,14.1-0.8,20.4-4.1
			c6.3-3.3,11.3-8.1,14.8-14.5c3.6-6.4,5.2-13.1,4.9-20.2c-0.3-7-2.4-13.6-6.4-19.5c9.2-8,19.9-14.1,32-18.4
			c3.3,6,7.8,10.7,13.7,14.2c5.8,3.5,12.2,5.2,19.2,5c7-0.1,13.3-1.8,19-5.1c5.7-3.3,10.2-8,13.7-14.1c12.1,4.3,22.8,10.4,32,18.4
			c-3,5.5-4.5,11.6-4.5,18.1c0,6.5,1.6,12.7,4.9,18.5c3.3,5.8,7.9,10.3,13.9,13.6c5.8,3.3,12,4.9,18.6,4.9c0.7,3.6,1.3,7,1.7,10.5
			c0.4,3.4,0.6,6.9,0.6,10.5c0,2.3-0.1,4.7-0.3,7.4c-0.2,2.6-0.6,5.4-1.2,8.4c-6.4,0.1-12.4,1.9-17.9,5.3c-5.6,3.4-10,7.9-13.4,13.4
			c-3.6,6.4-5.2,13-4.9,19.6c0.3,6.7,2.1,13,5.6,19c-9.4,8.5-19.7,15.2-30.9,19.9c-3.3-6-7.8-10.7-13.7-14.3
			c-5.8-3.6-12.2-5.3-19.2-5.3c-7.7,0-14.6,2-20.6,6c-6,4-10.6,9.2-13.6,15.8c-11.4-3.6-22.3-9.4-32.7-17.5c4-6,6.1-12.5,6.4-19.5
			c0.3-7-1.4-13.8-4.9-20.2c-3.8-6.5-9.1-11.5-15.8-14.9c-6.7-3.4-13.7-4.6-20.9-3.6C0.6,107.9,0,101.5,0,94.3z M62.5,94.3
			c0,5.1,1,10,2.9,14.5c1.9,4.6,4.6,8.5,8,12c3.4,3.4,7.4,6.1,12,8c4.6,1.9,9.5,2.9,14.7,2.9c5.3,0,10.2-1,14.7-2.9
			c4.6-1.9,8.5-4.6,11.8-8c3.3-3.4,6-7.4,7.9-12c1.9-4.6,2.9-9.4,2.9-14.5c0-5.1-1-10-2.9-14.5c-1.9-4.6-4.6-8.5-8-12
			c-3.4-3.4-7.4-6.1-12-8.1c-4.6-2-9.4-3-14.5-3c-5.1,0-10,1-14.6,3c-4.6,2-8.6,4.7-12.1,8.1c-3.4,3.4-6.1,7.4-8.1,12
			C63.3,84.4,62.4,89.2,62.5,94.3z"/>
	</g>
</g>
</svg>
