<?xml version="1.0" encoding="utf-8"?>
<!-- Generator: Adobe Illustrator 17.1.0, SVG Export Plug-In . SVG Version: 6.00 Build 0)  -->
<!DOCTYPE svg PUBLIC "-//W3C//DTD SVG 1.1//EN" "http://www.w3.org/Graphics/SVG/1.1/DTD/svg11.dtd">
<svg version="1.1" id="Calque_1" xmlns="http://www.w3.org/2000/svg" xmlns:xlink="http://www.w3.org/1999/xlink" x="0px" y="0px"
	 viewBox="0 0 200 162.5" enable-background="new 0 0 200 162.5" xml:space="preserve">
<path fill="#FFFFFF" d="M200,19.2c-7.4,3.3-15.3,5.5-23.6,6.5c8.5-5.1,15-13.1,18-22.7c-7.9,4.7-16.7,8.1-26.1,10
	c-7.5-8-18.1-13-30-13c-22.7,0-41,18.4-41,41c0,3.2,0.4,6.3,1.1,9.4c-34.1-1.7-64.3-18-84.6-42.9c-3.5,6.1-5.6,13.1-5.6,20.6
	c0,14.2,7.2,26.8,18.3,34.2C19.9,62,13.6,60.2,8,57.1c0,0.2,0,0.3,0,0.5c0,19.9,14.1,36.5,32.9,40.2c-3.4,0.9-7.1,1.4-10.8,1.4
	c-2.6,0-5.2-0.3-7.7-0.7c5.2,16.3,20.4,28.2,38.3,28.5c-14,11-31.7,17.6-51,17.6c-3.3,0-6.6-0.2-9.8-0.6
	c18.2,11.6,39.7,18.4,62.9,18.4c75.5,0,116.7-62.5,116.7-116.7c0-1.8,0-3.5-0.1-5.3C187.5,34.6,194.5,27.4,200,19.2z"/>
</svg>
